# xmcd CD database file
#
# Track frame offsets:
#	150
#	31111
#	66566
#	110712
#	155902
#	210590
#	252931
#	297488
#
# Disc length: 4238 seconds
#
# Revision: 0
# Processed by: cddbd v1.5.2PL0 Copyright (c) Steve Scherf et al.
# Submitted via: CDex 1.70beta2
#
DISCID=7d108c08
DTITLE=栗田妙子 - コレクリトリオ
DYEAR=2012
DGENRE=Jazz
TTITLE0=song for K-28
TTITLE1=happy end
TTITLE2=SBME
TTITLE3=シデコブシ
TTITLE4=夏の医者
TTITLE5=Ask Me Now
TTITLE6=Auto Reverse
TTITLE7=sobaology
EXTD=YEAR: 2012
EXTT0=
EXTT1=
EXTT2=
EXTT3=
EXTT4=
EXTT5=
EXTT6=
EXTT7=
PLAYORDER=
